<svg xmlns="http://www.w3.org/2000/svg" viewBox="0 0 299 225"><defs><style>.cls-1{fill:#fff;}</style></defs><g id="Layer_2" data-name="Layer 2"><g id="Layer_1-2" data-name="Layer 1"><path class="cls-1" d="M276.94,0H22.06C9.89,0,0,10.55,0,23.51v178C0,214.45,9.89,225,22.06,225H276.94c12.17,0,22.06-10.55,22.06-23.51v-178C299,10.55,289.11,0,276.94,0ZM182.28,112.45,280,41.93V183ZM276.76,19a2.83,2.83,0,0,1,1.93,1L149.15,113.5,19.6,20a2.85,2.85,0,0,1,1.94-1ZM18,183v-141l97.71,70.52Zm3.54,23a2.9,2.9,0,0,1-1.94-1l112.26-81,11.82,8.52a7.62,7.62,0,0,0,.9.46c.29.16.56.3.86.43a9.33,9.33,0,0,0,3.7.88h0a9.37,9.37,0,0,0,3.7-.88c.3-.13.57-.27.86-.43a8.48,8.48,0,0,0,.9-.46L166.43,124l112.26,81a2.83,2.83,0,0,1-1.93,1Z"/></g></g></svg>