<svg xmlns="http://www.w3.org/2000/svg" viewBox="0 0 226.64 226.64"><defs><style>.cls-1{fill:#17bebb;fill-rule:evenodd;}</style></defs><g id="Layer_2" data-name="Layer 2"><g id="Layer_1-2" data-name="Layer 1"><path class="cls-1" d="M113.32,89.71a23.61,23.61,0,1,0,23.61,23.61A23.61,23.61,0,0,0,113.32,89.71Zm0,0a23.61,23.61,0,1,0,23.61,23.61A23.61,23.61,0,0,0,113.32,89.71Zm0,0a23.61,23.61,0,1,0,23.61,23.61A23.61,23.61,0,0,0,113.32,89.71Zm0,0a23.61,23.61,0,1,0,23.61,23.61A23.61,23.61,0,0,0,113.32,89.71Zm57.65-5c-.32-6.91-1.47-10.66-2.43-13.15A23.6,23.6,0,0,0,155.09,58.1c-2.49-1-6.24-2.11-13.15-2.43-7.47-.34-9.71-.41-28.62-.41s-21.15.07-28.62.41C77.79,56,74,57.14,71.55,58.1A23.55,23.55,0,0,0,58.11,71.55C57.14,74,56,77.79,55.67,84.7c-.34,7.47-.41,9.71-.41,28.62s.07,21.15.41,28.62c.32,6.91,1.47,10.66,2.44,13.15a23.49,23.49,0,0,0,13.44,13.44c2.49,1,6.24,2.12,13.15,2.44,7.47.34,9.7.41,28.62.41s21.15-.07,28.62-.41c6.91-.32,10.66-1.47,13.15-2.44a23.55,23.55,0,0,0,13.45-13.44c1-2.49,2.11-6.24,2.43-13.15.34-7.47.41-9.71.41-28.62S171.31,92.17,171,84.7Zm-57.65,65a36.37,36.37,0,1,1,36.37-36.37A36.37,36.37,0,0,1,113.32,149.69ZM151.12,84a8.5,8.5,0,1,1,8.51-8.49A8.49,8.49,0,0,1,151.12,84Zm-37.8,5.7a23.61,23.61,0,1,0,23.61,23.61A23.61,23.61,0,0,0,113.32,89.71Zm0,0a23.61,23.61,0,1,0,23.61,23.61A23.61,23.61,0,0,0,113.32,89.71Zm0,0a23.61,23.61,0,1,0,23.61,23.61A23.61,23.61,0,0,0,113.32,89.71Zm0,0a23.61,23.61,0,1,0,23.61,23.61A23.61,23.61,0,0,0,113.32,89.71Zm0,0a23.61,23.61,0,1,0,23.61,23.61A23.61,23.61,0,0,0,113.32,89.71Zm57.65-5c-.32-6.91-1.47-10.66-2.43-13.15A23.6,23.6,0,0,0,155.09,58.1c-2.49-1-6.24-2.11-13.15-2.43-7.47-.34-9.71-.41-28.62-.41s-21.15.07-28.62.41C77.79,56,74,57.14,71.55,58.1A23.55,23.55,0,0,0,58.11,71.55C57.14,74,56,77.79,55.67,84.7c-.34,7.47-.41,9.71-.41,28.62s.07,21.15.41,28.62c.32,6.91,1.47,10.66,2.44,13.15a23.49,23.49,0,0,0,13.44,13.44c2.49,1,6.24,2.12,13.15,2.44,7.47.34,9.7.41,28.62.41s21.15-.07,28.62-.41c6.91-.32,10.66-1.47,13.15-2.44a23.55,23.55,0,0,0,13.45-13.44c1-2.49,2.11-6.24,2.43-13.15.34-7.47.41-9.71.41-28.62S171.31,92.17,171,84.7Zm-57.65,65a36.37,36.37,0,1,1,36.37-36.37A36.37,36.37,0,0,1,113.32,149.69ZM151.12,84a8.5,8.5,0,1,1,8.51-8.49A8.49,8.49,0,0,1,151.12,84Zm-37.8,5.7a23.61,23.61,0,1,0,23.61,23.61A23.61,23.61,0,0,0,113.32,89.71Zm0,0a23.61,23.61,0,1,0,23.61,23.61A23.61,23.61,0,0,0,113.32,89.71Zm0,0a23.61,23.61,0,1,0,23.61,23.61A23.61,23.61,0,0,0,113.32,89.71Zm0,0a23.61,23.61,0,1,0,23.61,23.61A23.61,23.61,0,0,0,113.32,89.71Zm0,0a23.61,23.61,0,1,0,23.61,23.61A23.61,23.61,0,0,0,113.32,89.71Zm57.65-5c-.32-6.91-1.47-10.66-2.43-13.15A23.6,23.6,0,0,0,155.09,58.1c-2.49-1-6.24-2.11-13.15-2.43-7.47-.34-9.71-.41-28.62-.41s-21.15.07-28.62.41C77.79,56,74,57.14,71.55,58.1A23.55,23.55,0,0,0,58.11,71.55C57.14,74,56,77.79,55.67,84.7c-.34,7.47-.41,9.71-.41,28.62s.07,21.15.41,28.62c.32,6.91,1.47,10.66,2.44,13.15a23.49,23.49,0,0,0,13.44,13.44c2.49,1,6.24,2.12,13.15,2.44,7.47.34,9.7.41,28.62.41s21.15-.07,28.62-.41c6.91-.32,10.66-1.47,13.15-2.44a23.55,23.55,0,0,0,13.45-13.44c1-2.49,2.11-6.24,2.43-13.15.34-7.47.41-9.71.41-28.62S171.31,92.17,171,84.7Zm-57.65,65a36.37,36.37,0,1,1,36.37-36.37A36.37,36.37,0,0,1,113.32,149.69ZM151.12,84a8.5,8.5,0,1,1,8.51-8.49A8.49,8.49,0,0,1,151.12,84Zm-37.8,5.7a23.61,23.61,0,1,0,23.61,23.61A23.61,23.61,0,0,0,113.32,89.71Zm57.65-5c-.32-6.91-1.47-10.66-2.43-13.15A23.6,23.6,0,0,0,155.09,58.1c-2.49-1-6.24-2.11-13.15-2.43-7.47-.34-9.71-.41-28.62-.41s-21.15.07-28.62.41C77.79,56,74,57.14,71.55,58.1A23.55,23.55,0,0,0,58.11,71.55C57.14,74,56,77.79,55.67,84.7c-.34,7.47-.41,9.71-.41,28.62s.07,21.15.41,28.62c.32,6.91,1.47,10.66,2.44,13.15a23.49,23.49,0,0,0,13.44,13.44c2.49,1,6.24,2.12,13.15,2.44,7.47.34,9.7.41,28.62.41s21.15-.07,28.62-.41c6.91-.32,10.66-1.47,13.15-2.44a23.55,23.55,0,0,0,13.45-13.44c1-2.49,2.11-6.24,2.43-13.15.34-7.47.41-9.71.41-28.62S171.31,92.17,171,84.7Zm-57.65,65a36.37,36.37,0,1,1,36.37-36.37A36.37,36.37,0,0,1,113.32,149.69ZM151.12,84a8.5,8.5,0,1,1,8.51-8.49A8.49,8.49,0,0,1,151.12,84Zm-37.8,5.7a23.61,23.61,0,1,0,23.61,23.61A23.61,23.61,0,0,0,113.32,89.71Zm0-89.71A113.32,113.32,0,1,0,226.64,113.32,113.38,113.38,0,0,0,113.32,0Zm70.4,142.52a51.83,51.83,0,0,1-3.3,17.19,36.09,36.09,0,0,1-20.71,20.71,51.83,51.83,0,0,1-17.19,3.3c-7.55.34-10,.43-29.2.43s-21.65-.09-29.2-.43a51.83,51.83,0,0,1-17.19-3.3,36.09,36.09,0,0,1-20.71-20.71,51.83,51.83,0,0,1-3.3-17.19c-.34-7.55-.43-10-.43-29.2s.09-21.65.43-29.2a51.83,51.83,0,0,1,3.3-17.19A36.09,36.09,0,0,1,66.93,46.22a51.83,51.83,0,0,1,17.19-3.3c7.55-.34,10-.43,29.2-.43s21.65.09,29.2.43a51.83,51.83,0,0,1,17.19,3.3,36.09,36.09,0,0,1,20.71,20.71,51.83,51.83,0,0,1,3.3,17.19c.34,7.55.43,10,.43,29.2S184.06,135,183.72,142.52Zm-15.18-71A23.6,23.6,0,0,0,155.09,58.1c-2.49-1-6.24-2.11-13.15-2.43-7.47-.34-9.71-.41-28.62-.41s-21.15.07-28.62.41C77.79,56,74,57.14,71.55,58.1A23.55,23.55,0,0,0,58.11,71.55C57.14,74,56,77.79,55.67,84.7c-.34,7.47-.41,9.71-.41,28.62s.07,21.15.41,28.62c.32,6.91,1.47,10.66,2.44,13.15a23.49,23.49,0,0,0,13.44,13.44c2.49,1,6.24,2.12,13.15,2.44,7.47.34,9.7.41,28.62.41s21.15-.07,28.62-.41c6.91-.32,10.66-1.47,13.15-2.44a23.55,23.55,0,0,0,13.45-13.44c1-2.49,2.11-6.24,2.43-13.15.34-7.47.41-9.71.41-28.62s-.07-21.15-.41-28.62C170.65,77.79,169.5,74,168.54,71.55Zm-55.22,78.14a36.37,36.37,0,1,1,36.37-36.37A36.37,36.37,0,0,1,113.32,149.69ZM151.12,84a8.5,8.5,0,1,1,8.51-8.49A8.49,8.49,0,0,1,151.12,84Zm-37.8,5.7a23.61,23.61,0,1,0,23.61,23.61A23.61,23.61,0,0,0,113.32,89.71Zm0,0a23.61,23.61,0,1,0,23.61,23.61A23.61,23.61,0,0,0,113.32,89.71Zm0,0a23.61,23.61,0,1,0,23.61,23.61A23.61,23.61,0,0,0,113.32,89.71Zm57.65-5c-.32-6.91-1.47-10.66-2.43-13.15A23.6,23.6,0,0,0,155.09,58.1c-2.49-1-6.24-2.11-13.15-2.43-7.47-.34-9.71-.41-28.62-.41s-21.15.07-28.62.41C77.79,56,74,57.14,71.55,58.1A23.55,23.55,0,0,0,58.11,71.55C57.14,74,56,77.79,55.67,84.7c-.34,7.47-.41,9.71-.41,28.62s.07,21.15.41,28.62c.32,6.91,1.47,10.66,2.44,13.15a23.49,23.49,0,0,0,13.44,13.44c2.49,1,6.24,2.12,13.15,2.44,7.47.34,9.7.41,28.62.41s21.15-.07,28.62-.41c6.91-.32,10.66-1.47,13.15-2.44a23.55,23.55,0,0,0,13.45-13.44c1-2.49,2.11-6.24,2.43-13.15.34-7.47.41-9.71.41-28.62S171.31,92.17,171,84.7Zm-57.65,65a36.37,36.37,0,1,1,36.37-36.37A36.37,36.37,0,0,1,113.32,149.69ZM151.12,84a8.5,8.5,0,1,1,8.51-8.49A8.49,8.49,0,0,1,151.12,84Zm-37.8,5.7a23.61,23.61,0,1,0,23.61,23.61A23.61,23.61,0,0,0,113.32,89.71Zm0,0a23.61,23.61,0,1,0,23.61,23.61A23.61,23.61,0,0,0,113.32,89.71Zm0,0a23.61,23.61,0,1,0,23.61,23.61A23.61,23.61,0,0,0,113.32,89.71Zm57.65-5c-.32-6.91-1.47-10.66-2.43-13.15A23.6,23.6,0,0,0,155.09,58.1c-2.49-1-6.24-2.11-13.15-2.43-7.47-.34-9.71-.41-28.62-.41s-21.15.07-28.62.41C77.79,56,74,57.14,71.55,58.1A23.55,23.55,0,0,0,58.11,71.55C57.14,74,56,77.79,55.67,84.7c-.34,7.47-.41,9.71-.41,28.62s.07,21.15.41,28.62c.32,6.91,1.47,10.66,2.44,13.15a23.49,23.49,0,0,0,13.44,13.44c2.49,1,6.24,2.12,13.15,2.44,7.47.34,9.7.41,28.62.41s21.15-.07,28.62-.41c6.91-.32,10.66-1.47,13.15-2.44a23.55,23.55,0,0,0,13.45-13.44c1-2.49,2.11-6.24,2.43-13.15.34-7.47.41-9.71.41-28.62S171.31,92.17,171,84.7Zm-57.65,65a36.37,36.37,0,1,1,36.37-36.37A36.37,36.37,0,0,1,113.32,149.69ZM151.12,84a8.5,8.5,0,1,1,8.51-8.49A8.49,8.49,0,0,1,151.12,84Zm-37.8,5.7a23.61,23.61,0,1,0,23.61,23.61A23.61,23.61,0,0,0,113.32,89.71Zm0,0a23.61,23.61,0,1,0,23.61,23.61A23.61,23.61,0,0,0,113.32,89.71Zm0,0a23.61,23.61,0,1,0,23.61,23.61A23.61,23.61,0,0,0,113.32,89.71Z"/></g></g></svg>