<svg xmlns="http://www.w3.org/2000/svg" viewBox="0 0 227.63 227.63"><defs><style>.cls-1{fill:#17bebb;}</style></defs><g id="Layer_2" data-name="Layer 2"><g id="Layer_1-2" data-name="Layer 1"><g id="Layer_2-2" data-name="Layer 2"><g id="Layer_2-2-2" data-name="Layer 2-2"><path class="cls-1" d="M113.82,0A113.82,113.82,0,1,0,227.63,113.82,113.82,113.82,0,0,0,113.82,0ZM84.63,110.31v56.37h-25v-71h25Zm-13-24.81A12.35,12.35,0,1,1,84,73.15h0A12.35,12.35,0,0,1,71.63,85.5Zm93,81.18h-21V132.3c0-8.25-.84-18.78-12-18.78s-13,8.92-13,18.14v35h-21v-71h20v10H118c3-5.65,10-9.45,20.55-9.45,17.9,0,24,8.3,25.58,21.65a82.73,82.73,0,0,1,.54,10.19Z"/></g></g></g></g></svg>