<svg xmlns="http://www.w3.org/2000/svg" viewBox="0 0 185.85 124.42"><g id="Layer_2" data-name="Layer 2"><g id="Layer_1-2" data-name="Layer 1"><path d="M137.16,66.1c4.23-.74,7.76-1.38,11.29-2a42.6,42.6,0,0,1,4.34-.57,4.73,4.73,0,0,1,1.63.51c-.5.35-1,.92-1.51,1-2.8.56-5.62,1-8.45,1.48a33,33,0,0,1-4.84.52A7.6,7.6,0,0,1,137.16,66.1Z"/><path d="M95.82,59.39c1.21-.53,6.66,0,6.66,0s1.42-4,3-5.58c-.52,7.16-3.79,19.7-11.62,21.38a69.1,69.1,0,0,0,5.53-6.6,64.35,64.35,0,0,0,3.62-7.3c-3-2.64-5.61-1.17-7.8.4C81.71,71.3,70.81,83.19,64.05,98.4c-3.08,6.94-.57,9.91,7.06,9.14,9.67-1,23.74-6.22,29.91-11.19,2.41,2.05,3.09,4.15,0,6.12-9.57,6.19-20.32,9-31.49,10-2.35.2-4.92-2.06-8.19-3.55-.37,1.61-.88,3.67-1.32,5.75s-.36,4.83-1.51,6.62c-1,1.6-3.78,3.52-5.18,3.14a7,7,0,0,1-4.17-4.89c-.39-3.38.95-7.94,1.38-11.89-.68-.36-2.25.07-3.23-.44l5.87-7.76c.77,3.35,1.3,7.27,1.75,9.24a8.22,8.22,0,0,1-3-.63s-1.06,9-1.16,12.24c0,.88.64,2.34,1.32,2.56s2.09-.33,2.91-.9a3.69,3.69,0,0,0,1.44-2.26c.94-6.62,4.94-12.44,4.79-19.43-.06-2.74,1.3-5.67,2.56-8.26C69.46,80.3,78.51,71.41,87.88,62.72A76.17,76.17,0,0,0,95.69,54a36.51,36.51,0,0,1,4-3.66c.16.19-2.8,4.48-3.13,5.88"/><path d="M151.55,71.78c-4.25.57-8,1-11.7,1.58a1.5,1.5,0,0,0-1.06.66c-1.16,2.65-2.24,5.33-3.53,8.46,5.53-.74,9.74-4.16,14.76-3.57l.28,1c-4.53,1.55-9.05,3.14-13.62,4.56-.3.09-1.45-1.1-1.4-1.61a42.83,42.83,0,0,1,1.22-6,20.3,20.3,0,0,1,1.32-3l-4.38.88L134,85l-1.11.08-.61-10.24A26.19,26.19,0,0,0,127,76.1c-.78.35-1.19,1.79-1.52,2.82-.63,2-1.08,4-1.77,6.69-1.86-3.41.34-5.71.5-8.45l-2-.17c2.88-1.12,3.37-3.66,4.2-6,1.49-4.13,3.07-8.22,4.55-12.35a18.22,18.22,0,0,1,1.05-3.1l1.28,17.75A31.61,31.61,0,0,1,139.32,72c3.8-.43,7.49-1.49,11.33-1.49C151,70.54,151.3,71.42,151.55,71.78Zm-20-10.49-.41.1-4.47,13.13,5.72-1.35C132.15,69.08,131.88,65.18,131.6,61.29Z"/><path d="M133,73.41c3.46-.61,6.35-1.13,9.23-1.62a35.76,35.76,0,0,1,3.56-.47,3.87,3.87,0,0,1,1.33.42c-.41.29-.78.75-1.23.84-2.3.46-4.6.85-6.91,1.21a26.77,26.77,0,0,1-4,.43A6.07,6.07,0,0,1,133,73.41Z"/><path d="M185.85,16.76c-2.28,2.68-4.71,5.26-6.78,8.1a11.2,11.2,0,0,0-1.59,4.52c-.82,4.37-1.45,8.77-2.2,13.15a9,9,0,0,1-.73,1.74c-1.75-2.16-.8-4.54-.53-6.76a58.4,58.4,0,0,1,1.56-6.82c.21-.83.88-3.8.88-3.8s-2.47-8.37-3.84-10.06c.43.46,3.85,7.26,4.64,8.12l8.59-10.81Z"/><path d="M116.17,40.27l12.09-3.77a6.24,6.24,0,0,1,1.47-.54c6.29-.25,8-5,9.75-9.76a19.16,19.16,0,0,1,1.41-2.69c.88-1.55,1.11-2.84-1.48-3.19,4.23-1.51,8.17-3.13,12.41-3.5l.32.95c-2,.71-4,1.53-6.06,2.11-3.73,1.05-4,1.3-4.53,5.69l8.65-1.21.31.41c-.55.43-1,1.07-1.67,1.23a11.8,11.8,0,0,1-4.35.65c-3.36-.45-4.83,1.24-5.67,4.11a23.87,23.87,0,0,1-1.35,3l1.65,1.11a12,12,0,0,0-2.83,2c-.63.82-.79,2-1.37,3.64,6.8-2,11.66-7,18.53-7.46a26.9,26.9,0,0,1-2.86,2.17c-3.62,2.07-7.28,4.07-10.94,6.06s-5.18,1-5.43-3.16a10,10,0,0,0-.2-1l-12.83,4a20.42,20.42,0,0,1-2.75.77c-2.75.47-4.74-1.83-3.44-4.31,1.86-3.56,4.13-6.91,6.24-10.33,1-1.55,2-3,2.88-4.62.48-.89,1.74-2.11-.75-2.51,3.24-2.08,11.52-3.08,13.1-1.41-3.25.65-6.27,1.18-9.26,1.88a3.07,3.07,0,0,0-1.85,1.34c-1,1.9-1.72,3.92-2.82,6.51l10.71-4.3.5.67c-.35.41-.63,1.05-1.07,1.2-3.54,1.24-7.13,2.38-10.69,3.58a2,2,0,0,0-1,.73c-1.83,3-3.62,6.07-5.43,9.1Z"/><path d="M116.44,20.68l-8,22.07-.6,0a10.25,10.25,0,0,1,0-3.28c1.86-5.2,3.88-10.34,6.1-16.15-2.31,1.58-4,3.16-5.92,4-5.5,2.25-8.22,6.66-10.13,11.87a23.68,23.68,0,0,1-1.09,2.22c-1.89-1.42-.68-2.75-.14-4.07q4.44-10.77,8.84-21.55c.41-1,.67-2.08,1-3.12l.82.23c-1.5,5.29-3,10.57-4.76,16.71l13.1-9.26Z"/><path d="M124.2,63.48l-8.3,22.83-.63,0c0-1.14-.31-2.38,0-3.39,1.93-5.38,4-10.69,6.31-16.7-2.39,1.63-4.09,3.27-6.12,4.1C109.82,72.61,107,77.17,105,82.56c-.28.75-.7,1.44-1.12,2.29-2-1.46-.71-2.84-.15-4.2q4.59-11.15,9.15-22.29c.42-1,.69-2.15,1-3.23l.86.24-4.93,17.27c4.89-3.44,9.22-6.5,13.56-9.57Z"/><path d="M166.57,39.72l-.67,2.47c-2.89-3.29-4.12-7.75-8.49-10.09l-1.8,9.66-.76.05a11.94,11.94,0,0,1-.12-3.41c1.89-7.16,3.92-14.3,5.92-21.43.08-.29.41-.5.62-.74l.36.11-3.5,12.52.73.45,9.81-10.86c-1.51,5.51-6.3,8.56-9.56,12.78"/><path d="M93,25.63l3.21-7.24L95.6,17.2a88.34,88.34,0,0,0-8.67,4.13A115.42,115.42,0,0,0,53.1,53.27a32.22,32.22,0,0,0-3.79,7.83c-1.82,5,0,7.9,5.42,7.6a141.78,141.78,0,0,0,17.81-2.58c6-1.11,12-2.57,18-3.88l.62,1.24c-2,1.23-3.81,3-6,3.6-8,2.37-16.07,5-24.31,6.36C49.45,75.3,42.61,66.26,47.78,55.69c3.32-6.79,8.31-13,13.39-18.66,8.16-9.14,17.63-16.89,29.15-21.55,1.84-.74,5.13-.44,6.38.77,1,.95.08,4.14-.46,6.2-.35,1.33-1.56,2.43-2.38,3.64Z"/><path d="M64.08,11.31c-3.32-2.27-6.28-1.92-9.75.26C38.79,21.34,27.46,35.12,16.55,49.88c.64.29,1,.57,1.32.57a7.48,7.48,0,0,0,1.53-.32,20.33,20.33,0,0,1,0,2.6,20,20,0,0,1-1,2.89l11.83-8.35.77.83-1.4,4.37.79.65L41,43.75l-.54,6c6-6.59,11.24-12.32,16.44-18.09,1.53-1.69,2.7-2.18,3.43.56-5.57,5.48-11.12,11-16.75,16.42a43.85,43.85,0,0,1-4.38,3.29l-1.51-3-9.55,7.83-.92-5.32c-2.91,2.09-5.93,4.49-9.22,6.47-.83.5-2.48-.35-3.66-1.22C9.8,57.94,6.18,62.84,0,61.24c12-4.68,16.12-16.65,24-25.12C33.62,25.71,43.18,15.31,56,8.59,60,6.5,62.35,7.6,64.08,11.31Z"/><path d="M78.34,6.57A2.21,2.21,0,0,1,77,4.79c-.06-.51.76-1.48,1.35-1.86C81.1,1.13,84.13.64,87.11.23A30.84,30.84,0,0,1,93.83.14c.75.06,2,.71,2.07,1.59S94.76,3.65,94,4.06a23,23,0,0,1-9.89,2.57A20.68,20.68,0,0,1,78.34,6.57ZM93.87.93c-3.81-1.54-7.19-.06-10.3.74A13.32,13.32,0,0,0,79,3.4c-.76.47-1.3,1-1.26,1.22.07.43.44.44,1,.71A3.93,3.93,0,0,0,80,5.6c4.78,0,7.95-.24,12.85-2.2C93.63,3.11,95,2.56,95.3,2S94.23,1.07,93.87.93Z"/></g></g></svg>