<svg xmlns="http://www.w3.org/2000/svg" viewBox="0 0 111.26 121.89"><g id="Layer_2" data-name="Layer 2"><g id="Layer_1-2" data-name="Layer 1"><path d="M106.88,100c-9.57,6.19-20.32,9-31.5,9.94-2.35.21-4.91-2.06-8.18-3.55-.37,1.61-.88,3.68-1.32,5.75-.48,2.24-.36,4.84-1.51,6.62-1,1.61-3.78,3.52-5.18,3.14a5.55,5.55,0,0,1-2.36-1.59A6.35,6.35,0,0,1,55,117c-.4-3.38.95-7.94,1.37-11.89-.67-.35-2.24.08-3.22-.43L59,96.87c.77,3.35,1.3,7.27,1.75,9.25a8.59,8.59,0,0,1-3-.63s-1,9-1.16,12.23a3.7,3.7,0,0,0,.84,2.2,1.13,1.13,0,0,0,.49.36c.8.27,2.08-.32,2.91-.9a3.75,3.75,0,0,0,1.44-2.25C63.11,111.23,66.36,106,67,100l1.66.18c-.35,3.86,2.49,5.45,8.31,4.86,9.67-1,23.74-6.21,29.91-11.19C109.24,95.87,109.92,98,106.88,100Z"/><path d="M111.26,51.29c-.53,7.15-3.79,19.7-11.62,21.37a71.69,71.69,0,0,0,5.52-6.59,62.92,62.92,0,0,0,3.63-7.31c-3-2.64-5.61-1.17-7.81.4-13.46,9.61-24.35,21.5-31.11,36.72a13.74,13.74,0,0,0-1.25,4.27L67,100a17,17,0,0,0,.1-2.27C67,95,68.36,92,69.62,89.43c4.43-9.14,11-16.58,18.1-23.55a9.88,9.88,0,0,1-2.49,1.21c-8,2.37-16.07,5-24.3,6.36-7.11,1.15-12.44-1.89-14.23-6.87-1.11-3.06-.88-6.86,1.09-10.88,3.32-6.79,8.3-13,13.39-18.66C69.33,27.9,78.8,20.15,90.33,15.49c1.83-.74,5.12-.45,6.37.77,1,.94.08,4.13-.46,6.2-.35,1.33-1.55,2.43-2.38,3.63L93,25.64l3.21-7.25L95.6,17.2a90.69,90.69,0,0,0-8.67,4.13A115.54,115.54,0,0,0,53.1,53.27a32.58,32.58,0,0,0-3.79,7.83c-.77,2.12-.88,3.87-.33,5.16.73,1.73,2.65,2.62,5.76,2.45a141.89,141.89,0,0,0,17.8-2.58c5.31-1,11.65-2.57,17.18-3.82a8.61,8.61,0,0,0,4-2.1h0a76.94,76.94,0,0,0,7.8-8.69,34.71,34.71,0,0,1,4-3.66c.16.19-2.8,4.48-3.14,5.88l-.71,3.13c1.21-.53,6.66,0,6.66,0S109.71,52.89,111.26,51.29Z"/><path d="M64.08,11.31c-3.32-2.27-6.28-1.92-9.75.26C38.79,21.34,27.46,35.12,16.55,49.88c.64.29,1,.57,1.32.57a7.48,7.48,0,0,0,1.53-.32,20.33,20.33,0,0,1,0,2.6,20,20,0,0,1-1,2.89l11.83-8.35.77.83-1.4,4.37.79.65L41,43.75l-.54,6c6-6.59,11.24-12.32,16.44-18.09,1.53-1.69,2.7-2.18,3.43.56-5.57,5.48-11.12,11-16.75,16.42a43.85,43.85,0,0,1-4.38,3.29l-1.51-3-9.55,7.83-.92-5.32c-2.91,2.09-5.93,4.49-9.22,6.47-.83.5-2.48-.35-3.66-1.22C9.8,57.94,6.18,62.84,0,61.24c12-4.68,16.12-16.65,24-25.12C33.62,25.71,43.18,15.31,56,8.59,60,6.5,62.35,7.6,64.08,11.31Z"/><path d="M78.34,6.57A2.21,2.21,0,0,1,77,4.79c-.06-.51.76-1.48,1.35-1.86C81.1,1.13,84.13.64,87.11.23A30.84,30.84,0,0,1,93.83.14c.75.06,2,.71,2.07,1.59S94.76,3.65,94,4.06a23,23,0,0,1-9.89,2.57A20.68,20.68,0,0,1,78.34,6.57ZM93.87.93c-3.81-1.54-7.19-.06-10.3.74A13.32,13.32,0,0,0,79,3.4c-.76.47-1.3,1-1.26,1.22.07.43.44.44,1,.71A3.93,3.93,0,0,0,80,5.6c4.78,0,7.95-.24,12.85-2.2C93.63,3.11,95,2.56,95.3,2S94.23,1.07,93.87.93Z"/></g></g></svg>