<?xml version="1.0" standalone="no"?>
<!DOCTYPE svg PUBLIC "-//W3C//DTD SVG 20010904//EN"
 "http://www.w3.org/TR/2001/REC-SVG-20010904/DTD/svg10.dtd">
<svg version="1.0" xmlns="http://www.w3.org/2000/svg"
 width="1669.000000pt" height="1669.000000pt" viewBox="0 0 1669.000000 1669.000000"
 preserveAspectRatio="xMidYMid meet">
<metadata>
Created by potrace 1.11, written by Peter Selinger 2001-2013
</metadata>
<g transform="translate(0.000000,1669.000000) scale(0.100000,-0.100000)"
fill="#000000" stroke="none">
<path d="M8097 16684 c-1 -1 -67 -5 -147 -8 -149 -6 -238 -12 -325 -21 -27 -2
-81 -7 -120 -10 -38 -3 -77 -8 -85 -10 -8 -2 -51 -7 -95 -11 -44 -3 -83 -8
-86 -10 -3 -2 -33 -6 -65 -9 -32 -4 -66 -8 -74 -10 -8 -2 -37 -7 -65 -10 -27
-4 -66 -10 -85 -15 -19 -5 -53 -11 -75 -14 -54 -8 -89 -14 -165 -31 -36 -8
-81 -17 -100 -20 -19 -3 -82 -17 -140 -31 -58 -13 -115 -26 -128 -29 -12 -2
-26 -6 -30 -9 -5 -3 -24 -8 -43 -11 -35 -6 -231 -61 -349 -97 -284 -87 -619
-209 -834 -302 -67 -29 -146 -64 -176 -77 -74 -32 -506 -249 -600 -300 -185
-103 -665 -401 -690 -428 -3 -3 -32 -24 -65 -46 -140 -94 -508 -380 -625 -485
-15 -14 -37 -33 -48 -42 -146 -121 -605 -570 -742 -727 -36 -41 -70 -79 -75
-85 -68 -73 -304 -366 -443 -551 -278 -370 -634 -968 -831 -1397 -17 -38 -45
-98 -62 -135 -45 -98 -132 -307 -163 -393 -15 -41 -32 -84 -37 -95 -32 -71
-176 -508 -219 -670 -31 -117 -70 -265 -75 -289 -2 -12 -17 -79 -34 -151 -16
-71 -32 -146 -35 -166 -3 -20 -8 -42 -10 -50 -3 -8 -8 -32 -11 -54 -3 -22 -12
-71 -19 -110 -8 -38 -17 -92 -20 -120 -4 -27 -8 -61 -11 -75 -5 -29 -12 -76
-20 -145 -4 -27 -8 -61 -10 -75 -2 -14 -7 -56 -11 -95 -3 -38 -8 -77 -9 -86
-2 -8 -6 -55 -10 -105 -4 -49 -8 -107 -10 -129 -24 -275 -24 -988 0 -1195 2
-19 6 -76 10 -127 3 -50 8 -102 10 -115 2 -13 6 -54 10 -91 3 -37 8 -78 11
-90 2 -12 6 -42 8 -67 6 -55 27 -202 41 -280 1 -8 6 -35 10 -60 4 -25 9 -54
11 -65 3 -11 7 -35 10 -54 3 -18 8 -43 10 -55 8 -38 26 -126 40 -191 3 -16 21
-93 41 -170 19 -77 36 -150 39 -162 2 -12 25 -93 50 -180 241 -836 592 -1594
1066 -2306 95 -142 232 -338 290 -412 63 -82 303 -381 325 -406 17 -19 70 -79
119 -134 91 -103 516 -532 614 -620 168 -150 383 -329 538 -446 64 -49 122
-93 128 -98 27 -23 288 -203 388 -268 285 -185 527 -323 871 -493 539 -267
1033 -449 1635 -604 158 -40 506 -114 620 -132 25 -3 54 -8 65 -10 29 -5 154
-23 200 -30 22 -3 51 -7 65 -9 14 -2 50 -6 80 -10 30 -3 71 -8 90 -10 69 -9
116 -14 200 -21 47 -3 99 -8 115 -10 232 -23 1003 -22 1205 1 19 2 80 7 134
10 55 4 107 8 115 10 9 1 43 6 76 9 59 6 257 32 325 42 253 36 744 139 930
193 36 11 115 34 175 51 281 81 660 216 900 320 22 10 85 37 140 61 156 68
554 269 725 366 180 103 414 249 549 341 52 36 108 74 125 86 50 34 339 250
399 298 115 92 232 191 422 358 51 44 507 500 560 560 23 25 72 81 110 125 38
44 71 82 75 85 11 9 254 313 311 390 663 885 1126 1841 1402 2895 39 146 82
329 102 428 3 15 7 38 10 52 11 53 16 82 25 130 8 50 12 71 30 175 5 30 11 71
14 90 2 19 7 51 10 70 16 98 35 268 51 460 3 36 8 85 10 110 19 212 24 707 11
1030 -4 101 -9 187 -11 190 -1 3 -6 50 -9 105 -4 55 -9 107 -11 115 -2 8 -7
44 -10 80 -3 36 -7 81 -10 100 -2 19 -7 58 -10 85 -4 28 -8 61 -10 75 -2 14
-7 45 -10 70 -4 24 -8 47 -10 50 -1 3 -6 32 -9 65 -4 33 -11 76 -16 95 -5 19
-11 53 -15 75 -12 84 -68 337 -111 510 -25 99 -47 188 -49 198 -2 9 -6 21 -9
25 -3 5 -7 19 -10 33 -7 38 -100 329 -154 484 -224 638 -566 1317 -937 1865
-63 92 -166 241 -177 255 -4 6 -33 44 -65 85 -80 107 -226 293 -238 306 -5 6
-28 32 -50 59 -142 172 -264 304 -500 540 -226 227 -309 305 -415 395 -30 25
-61 52 -70 60 -8 8 -40 35 -70 60 -30 25 -57 47 -60 50 -36 40 -443 342 -635
471 -518 350 -1144 673 -1695 876 -52 19 -104 39 -115 44 -25 11 -338 115
-425 141 -158 47 -421 117 -496 133 -11 2 -48 10 -84 19 -36 8 -76 17 -90 20
-14 2 -70 14 -125 25 -96 19 -299 55 -377 66 -71 10 -103 14 -153 20 -27 4
-61 8 -75 11 -14 2 -56 6 -95 10 -38 3 -81 7 -95 10 -34 5 -174 16 -410 30
-94 6 -658 12 -663 8z"/>
</g>
</svg>
