<svg xmlns="http://www.w3.org/2000/svg" viewBox="0 0 192.49 192.49"><defs><style>.cls-1{fill:#fff;}.cls-2{fill:#1d1d1b;}</style></defs><g id="Layer_2" data-name="Layer 2"><g id="Layer_1-2" data-name="Layer 1"><rect class="cls-1" width="192.49" height="192.49"/><path d="M141.46,95.87c4.23-.74,7.75-1.38,11.28-2,1.44-.24,2.89-.47,4.35-.57a4.8,4.8,0,0,1,1.63.51c-.5.36-1,.92-1.51,1-2.81.56-5.63,1-8.45,1.48a33.17,33.17,0,0,1-4.84.53A7.57,7.57,0,0,1,141.46,95.87Z"/><path class="cls-2" d="M59.27,138.41a9,9,0,0,1-2.87-.56l-.12,0-.05,0a4.64,4.64,0,0,0-.85-.3c-.18,0-.35-.08-.51-.11h0c-.67-.35-2.24.08-3.22-.43l5.87-7.76C58.29,132.51,58.82,136.43,59.27,138.41Z"/><path class="cls-2" d="M56.23,137.78s-1,9-1.16,12.24a3.69,3.69,0,0,0,.73,2.06l-.43.54-.06-.06a6.43,6.43,0,0,1-1.81-3.3c-.4-3.39,1-7.94,1.37-11.89.16,0,.33.06.51.11A4.64,4.64,0,0,1,56.23,137.78Z"/><path class="cls-2" d="M65.72,138.65l0,0c-.37,1.62-.88,3.68-1.32,5.75-.48,2.24-.36,4.84-1.51,6.63-1,1.6-3.78,3.51-5.18,3.13a5.48,5.48,0,0,1-2.3-1.52l.43-.54a1.71,1.71,0,0,0,.11.14,1.31,1.31,0,0,0,.49.36c.8.26,2.09-.33,2.91-.91a3.67,3.67,0,0,0,1.44-2.25c.75-5.29,3.46-10.07,4.44-15.35a21.76,21.76,0,0,0,.27,3.17C65.53,137.73,65.62,138.2,65.72,138.65Z"/><path class="cls-2" d="M105.3,132.19c-9.57,6.19-20.32,9-31.49,9.95-2.35.2-4.9-2-8.15-3.54-.1-.45-.19-.92-.26-1.41a21.76,21.76,0,0,1-.27-3.17,17.52,17.52,0,0,0,.25-1.81,17,17,0,0,0,.1-2.27c-.06-2.74,1.3-5.68,2.56-8.26C73.7,110,82.75,101.13,92.12,92.44c.52-.48,1-.93,1.43-1.37A18.64,18.64,0,0,1,97,89.57a26.29,26.29,0,0,1,3.06-.61l0,.14c1-.43,4.9-.15,6.22,0a19.25,19.25,0,0,1,2.26,1.47c-1.6,6.39-4.87,13.18-10.48,14.38a73.3,73.3,0,0,0,5.53-6.6,64.35,64.35,0,0,0,3.62-7.3c-3-2.64-5.61-1.17-7.81.39C85.94,101,75.05,112.9,68.29,128.12A13.74,13.74,0,0,0,67,132.39c-.35,3.87,2.49,5.45,8.31,4.86,9.67-1,23.74-6.21,29.91-11.18C107.66,128.11,108.35,130.22,105.3,132.19Z"/><path class="cls-2" d="M103.91,80.15c.16.19-2.8,4.48-3.13,5.88l-.69,3a26.29,26.29,0,0,0-3.06.61,18.64,18.64,0,0,0-3.48,1.5,91,91,0,0,0,6.38-7.32A34.68,34.68,0,0,1,103.91,80.15Z"/><path class="cls-2" d="M109.74,83.58a43.46,43.46,0,0,1-1.14,7,19.25,19.25,0,0,0-2.26-1.47l.44,0S108.2,85.18,109.74,83.58Z"/><path d="M155.85,101.55c-4.25.57-8,1-11.7,1.58a1.55,1.55,0,0,0-1.06.67c-1.16,2.64-2.24,5.33-3.54,8.45,5.54-.74,9.75-4.16,14.77-3.56l.28,1c-4.53,1.54-9,3.13-13.62,4.55-.3.09-1.46-1.1-1.4-1.61a41,41,0,0,1,1.22-6,20.35,20.35,0,0,1,1.32-3l-4.38.89.6,10.29-1.12.08-.6-10.24a26.19,26.19,0,0,0-5.36,1.23c-.78.35-1.19,1.79-1.52,2.82-.63,2-1.08,4-1.77,6.7-1.86-3.42.33-5.72.5-8.45l-2-.18c2.88-1.12,3.37-3.66,4.2-6,1.48-4.12,3.07-8.22,4.55-12.35a18.22,18.22,0,0,1,1.05-3.1c.41,5.69.82,11.37,1.27,17.76a30.25,30.25,0,0,1,6.08-1.27c3.8-.43,7.48-1.5,11.33-1.5C155.27,100.31,155.6,101.19,155.85,101.55ZM135.9,91.06l-.41.11c-1.41,4.14-2.83,8.29-4.47,13.12l5.72-1.35C136.45,98.85,136.17,95,135.9,91.06Z"/><path d="M190.15,46.53c-2.29,2.69-4.71,5.27-6.79,8.1a11.5,11.5,0,0,0-1.59,4.53c-.81,4.36-1.45,8.76-2.19,13.14a8.79,8.79,0,0,1-.73,1.74c-1.75-2.16-.81-4.54-.53-6.76a58.4,58.4,0,0,1,1.56-6.82c.21-.83.88-3.8.88-3.8s-2.47-8.36-3.84-10.06c.43.46,3.85,7.26,4.64,8.12l8.59-10.8Z"/><path d="M120.46,70l12.1-3.77a6.84,6.84,0,0,1,1.46-.54c6.3-.25,8-5,9.76-9.76a18.16,18.16,0,0,1,1.41-2.69c.88-1.55,1.11-2.83-1.48-3.19,4.23-1.51,8.17-3.13,12.41-3.5l.32.95c-2,.71-4,1.53-6.06,2.11-3.73,1.05-4,1.3-4.53,5.69l8.65-1.21.31.42c-.55.42-1.05,1.06-1.68,1.22a12,12,0,0,1-4.34.66c-3.36-.46-4.83,1.24-5.67,4.11a23.14,23.14,0,0,1-1.36,3l1.66,1.12a11.73,11.73,0,0,0-2.83,2c-.63.83-.79,2-1.37,3.64,6.8-2,11.66-7,18.53-7.46A25.63,25.63,0,0,1,154.89,65C151.27,67,147.61,69,144,71s-5.18,1-5.44-3.16a9.62,9.62,0,0,0-.19-1l-12.83,4a22.45,22.45,0,0,1-2.75.76c-2.75.47-4.74-1.83-3.44-4.31,1.86-3.56,4.13-6.9,6.24-10.33.95-1.55,2-3,2.88-4.62.48-.89,1.74-2.1-.76-2.51,3.25-2.07,11.53-3.08,13.11-1.4-3.25.64-6.28,1.17-9.26,1.87a3,3,0,0,0-1.85,1.34c-1,1.91-1.72,3.92-2.82,6.51l10.71-4.3.5.68c-.35.41-.63,1-1.07,1.19-3.55,1.24-7.13,2.38-10.69,3.59a2,2,0,0,0-1,.72c-1.83,3-3.62,6.07-5.43,9.11Z"/><path d="M120.74,50.46l-8,22.07-.61,0a10.55,10.55,0,0,1,.05-3.28C114,64,116,58.88,118.26,53.06c-2.32,1.59-4,3.17-5.93,4-5.49,2.25-8.22,6.67-10.13,11.87a21.25,21.25,0,0,1-1.08,2.22c-1.89-1.41-.68-2.74-.14-4.06q4.42-10.77,8.84-21.55c.41-1,.67-2.08,1-3.13l.83.24c-1.51,5.28-3,10.56-4.76,16.7L120,50.07Z"/><path d="M128.5,93.25l-8.3,22.83-.63,0c0-1.14-.31-2.38.05-3.39,1.92-5.37,4-10.69,6.31-16.7-2.39,1.63-4.09,3.27-6.13,4.1-5.68,2.33-8.5,6.89-10.47,12.28-.28.75-.71,1.45-1.13,2.3-2-1.47-.7-2.84-.14-4.21q4.59-11.15,9.14-22.29c.43-1,.7-2.15,1-3.23l.86.24-4.93,17.28,13.55-9.57Z"/><path d="M170.87,69.5,170.19,72c-2.89-3.28-4.11-7.75-8.48-10.09l-1.81,9.66-.75,0a11.88,11.88,0,0,1-.13-3.4c1.9-7.17,3.92-14.3,5.93-21.44.08-.28.41-.5.62-.74l.36.11-3.51,12.52.74.45L173,48.22c-1.5,5.51-6.29,8.56-9.55,12.79Z"/><path d="M97.28,55.41l3.21-7.25L99.9,47a90.69,90.69,0,0,0-8.67,4.13A115.42,115.42,0,0,0,57.4,83a32.4,32.4,0,0,0-3.79,7.83c-1.82,5,0,7.91,5.42,7.61a145.11,145.11,0,0,0,17.8-2.58c6-1.12,12-2.58,18-3.89l.62,1.24c-2,1.23-3.81,3-6,3.61-8,2.37-16.07,5-24.31,6.36C53.74,105.07,46.91,96,52.08,85.46c3.32-6.79,8.31-13,13.39-18.65,8.16-9.14,17.62-16.89,29.15-21.55,1.83-.74,5.12-.45,6.38.77,1,.94.07,4.13-.47,6.2-.34,1.32-1.55,2.43-2.37,3.63Z"/><path d="M68.38,41.08c-3.32-2.27-6.29-1.92-9.75.26C43.09,51.11,31.76,64.89,20.84,79.66c.65.29,1,.56,1.32.56a7.43,7.43,0,0,0,1.54-.32,22.34,22.34,0,0,1,0,2.6,20.56,20.56,0,0,1-1,2.89c4.51-3.17,8.17-5.76,11.84-8.35l.76.84-1.39,4.36.79.65,10.68-9.36-.53,6C50.8,72.9,56,67.18,61.24,61.41c1.52-1.7,2.7-2.19,3.43.55C59.1,67.44,53.55,73,47.92,78.38a43.89,43.89,0,0,1-4.38,3.3L42,78.62l-9.55,7.83-.93-5.32c-2.9,2.09-5.93,4.49-9.21,6.48-.83.5-2.48-.36-3.67-1.22C14.1,87.71,10.47,92.62,4.3,91c12-4.69,16.12-16.66,24-25.12,9.66-10.42,19.22-20.81,32.07-27.53C64.33,36.27,66.65,37.37,68.38,41.08Z"/><path d="M82.64,36.34a2.18,2.18,0,0,1-1.34-1.78c-.06-.5.75-1.47,1.35-1.86,2.75-1.8,5.78-2.29,8.76-2.7a30.22,30.22,0,0,1,6.72-.08c.75.06,2,.7,2.07,1.58s-1.14,1.92-1.91,2.33a22.8,22.8,0,0,1-9.88,2.57A20.67,20.67,0,0,1,82.64,36.34ZM98.16,30.7c-3.81-1.54-7.19-.06-10.29.75a13.12,13.12,0,0,0-4.6,1.73c-.77.46-1.3,1-1.26,1.21.07.43.44.45,1,.71a3.72,3.72,0,0,0,1.37.27c4.78,0,7.94-.24,12.85-2.19.74-.3,2.09-.85,2.41-1.44S98.52,30.84,98.16,30.7Z"/></g></g></svg>